<svg width="23" height="20" viewBox="0 0 23 20" fill="none" xmlns="http://www.w3.org/2000/svg">
<path d="M22.4435 4.0986C22.0867 3.29655 21.5721 2.56975 20.9287 1.95886C20.2847 1.34616 19.5255 0.85925 18.6923 0.524616C17.8283 0.176245 16.9016 -0.002072 15.9661 1.81642e-05C14.6535 1.81642e-05 13.3729 0.348889 12.2601 1.00787C11.9938 1.1655 11.7409 1.33865 11.5013 1.5273C11.2617 1.33865 11.0088 1.1655 10.7425 1.00787C9.62969 0.348889 8.3491 1.81642e-05 7.03657 1.81642e-05C6.09144 1.81642e-05 5.17559 0.175746 4.31033 0.524616C3.47436 0.860566 2.72091 1.34382 2.07396 1.95886C1.42967 2.56906 0.914988 3.29604 0.559092 4.0986C0.189026 4.93331 0 5.8197 0 6.73193C0 7.59248 0.181039 8.4892 0.540455 9.40144C0.8413 10.1638 1.2726 10.9546 1.8237 11.7531C2.69695 13.0168 3.89767 14.3347 5.38858 15.6708C7.85923 17.8855 10.3059 19.4153 10.4098 19.4773L11.0407 19.8701C11.3203 20.0433 11.6797 20.0433 11.9592 19.8701L12.5902 19.4773C12.694 19.4127 15.1381 17.8855 17.6114 15.6708C19.1023 14.3347 20.303 13.0168 21.1763 11.7531C21.7274 10.9546 22.1613 10.1638 22.4595 9.40144C22.8189 8.4892 23 7.59248 23 6.73193C23.0026 5.8197 22.8136 4.93331 22.4435 4.0986Z" fill="url(#paint0_linear_30118_153)"/>
<defs>
<linearGradient id="paint0_linear_30118_153" x1="11.5" y1="0" x2="11.5" y2="20" gradientUnits="userSpaceOnUse">
<stop stop-color="#FFB0B0"/>
<stop offset="1" stop-color="#FF4343"/>
</linearGradient>
</defs>
</svg>
